<?xml version="1.0" encoding="utf-8"?>
<!-- Generator: Adobe Illustrator 16.0.0, SVG Export Plug-In . SVG Version: 6.00 Build 0)  -->
<!DOCTYPE svg PUBLIC "-//W3C//DTD SVG 1.0//EN" "http://www.w3.org/TR/2001/REC-SVG-20010904/DTD/svg10.dtd">
<svg version="1.0" id="Layer_1" xmlns="http://www.w3.org/2000/svg" xmlns:xlink="http://www.w3.org/1999/xlink" x="0px" y="0px"
	 width="284px" height="284px" viewBox="0 0 284 284" enable-background="new 0 0 284 284" xml:space="preserve">
<linearGradient id="SVGID_1_" gradientUnits="userSpaceOnUse" x1="142.0005" y1="283.5" x2="142.0005" y2="0.5005">
	<stop  offset="0" style="stop-color:#F37F0C"/>
	<stop  offset="1" style="stop-color:#ED780F"/>
</linearGradient>
<path fill="url(#SVGID_1_)" d="M283.5,142c0,78.146-63.354,141.5-141.5,141.5C63.853,283.5,0.5,220.146,0.5,142
	C0.5,63.849,63.853,0.5,142,0.5C220.146,0.5,283.5,63.849,283.5,142z"/>
<path fill="#FFFFFF" d="M238.098,194.232L199.35,74.966c-1.484-4.577-5.725-7.652-10.561-7.652c-1.154,0-2.295,0.182-3.4,0.54
	l-5.004,1.628l-1.689-5.173c-1.48-4.582-5.721-7.656-10.553-7.656c-1.152,0-2.297,0.185-3.402,0.54l-5.463,1.779l-1.771-5.467
	c-1.488-4.577-5.725-7.652-10.553-7.652c-1.162,0-2.303,0.181-3.406,0.54L53.019,75.804c-5.817,1.892-9.004,8.153-7.117,13.965
	l38.752,119.264c1.485,4.578,5.73,7.658,10.559,7.658c1.152,0,2.297-0.188,3.398-0.545l5.457-1.775l1.775,5.463
	c1.494,4.578,5.73,7.652,10.559,7.652c1.156,0,2.306-0.178,3.406-0.539l5.014-1.629l1.676,5.174
	c1.494,4.576,5.734,7.656,10.562,7.656c1.156,0,2.301-0.186,3.402-0.549l90.524-29.408
	C236.799,206.309,239.984,200.043,238.098,194.232z M185.562,103.021l2.043,6.296l-70.172,22.791l-2.042-6.292L185.562,103.021z
	 M96.641,210.08c-2.405,0.777-5.151-0.645-5.921-3.02L51.964,87.795c-0.795-2.466,0.557-5.117,3.023-5.92l90.528-29.416
	c0.471-0.147,0.945-0.229,1.438-0.229c2.018,0,3.865,1.334,4.482,3.251l1.779,5.458L74.212,86.608
	c-5.812,1.887-9.008,8.153-7.121,13.957l35.008,107.74L96.641,210.08z M117.832,220.875c-2.397,0.781-5.148-0.643-5.921-3.014
	l-1.774-5.459l-1.965-6.066L73.167,98.595c-0.803-2.461,0.548-5.121,3.014-5.92l79.006-25.667l6.066-1.974l5.455-1.771
	c0.471-0.155,0.949-0.229,1.434-0.229c2.021,0,3.869,1.33,4.49,3.243l1.686,5.173l-9.928,3.23l-6.072,1.969L94.862,97.266
	c-5.808,1.891-8.999,8.148-7.116,13.965l29.904,92.025l1.973,6.068l3.227,9.922L117.832,220.875z M122.214,146.822l-2.043-6.296
	l70.167-22.801l2.043,6.296L122.214,146.822z M126.99,161.525l-2.043-6.297l70.172-22.8l2.045,6.297L126.99,161.525z
	 M129.732,169.938l70.167-22.797l2.043,6.293l-70.167,22.799L129.732,169.938z M136.554,190.941l-2.047-6.297l70.172-22.801
	l2.043,6.297L136.554,190.941z"/>
</svg>
